<mxfile host="app.diagrams.net" modified="2023-10-15T18:50:33.362Z" agent="Mozilla/5.0 (Windows NT 10.0; Win64; x64) AppleWebKit/537.36 (KHTML, like Gecko) Chrome/118.0.0.0 Safari/537.36" etag="crry1RWU8uvE1fQLfrRd" version="22.0.4" type="github">
  <diagram name="Page-1" id="2YBvvXClWsGukQMizWep">
    <mxGraphModel dx="2954" dy="1150" grid="1" gridSize="10" guides="1" tooltips="1" connect="1" arrows="1" fold="1" page="1" pageScale="1" pageWidth="850" pageHeight="1100" math="0" shadow="0">
      <root>
        <mxCell id="0" />
        <mxCell id="1" parent="0" />
        <mxCell id="4D2iNyLL06wOy7QIrrQS-2" value="Registrar Datos de&lt;br&gt;Clientes" style="rounded=0;whiteSpace=wrap;html=1;" vertex="1" parent="1">
          <mxGeometry x="80" y="160" width="120" height="80" as="geometry" />
        </mxCell>
        <mxCell id="4D2iNyLL06wOy7QIrrQS-4" value="Gestionar Tipos de&lt;br&gt;Habitaciones" style="rounded=0;whiteSpace=wrap;html=1;" vertex="1" parent="1">
          <mxGeometry x="80" y="280" width="120" height="80" as="geometry" />
        </mxCell>
        <mxCell id="4D2iNyLL06wOy7QIrrQS-5" value="Gestionar Disponibilidad&lt;br&gt;de Habitaciones" style="rounded=0;whiteSpace=wrap;html=1;" vertex="1" parent="1">
          <mxGeometry x="80" y="400" width="120" height="80" as="geometry" />
        </mxCell>
        <mxCell id="4D2iNyLL06wOy7QIrrQS-6" value="Realizar Reservas" style="rounded=0;whiteSpace=wrap;html=1;" vertex="1" parent="1">
          <mxGeometry x="80" y="520" width="120" height="80" as="geometry" />
        </mxCell>
        <mxCell id="4D2iNyLL06wOy7QIrrQS-7" value="Consultar Listado de&lt;br&gt;Clientes con Reserva" style="rounded=0;whiteSpace=wrap;html=1;" vertex="1" parent="1">
          <mxGeometry x="80" y="640" width="120" height="80" as="geometry" />
        </mxCell>
        <mxCell id="4D2iNyLL06wOy7QIrrQS-8" value="Consultar Entradas y&lt;br&gt;Salidas de Clientes" style="rounded=0;whiteSpace=wrap;html=1;" vertex="1" parent="1">
          <mxGeometry x="79" y="760" width="120" height="80" as="geometry" />
        </mxCell>
        <mxCell id="4D2iNyLL06wOy7QIrrQS-9" value="Gestionar Llegada de&lt;br&gt;Clientes" style="rounded=0;whiteSpace=wrap;html=1;" vertex="1" parent="1">
          <mxGeometry x="80" y="880" width="120" height="80" as="geometry" />
        </mxCell>
        <mxCell id="4D2iNyLL06wOy7QIrrQS-10" value="Gestionar Incidencias" style="rounded=0;whiteSpace=wrap;html=1;" vertex="1" parent="1">
          <mxGeometry x="80" y="1000" width="120" height="80" as="geometry" />
        </mxCell>
        <mxCell id="4D2iNyLL06wOy7QIrrQS-11" value="Modificar Reserva" style="rounded=0;whiteSpace=wrap;html=1;" vertex="1" parent="1">
          <mxGeometry x="80" y="1120" width="120" height="80" as="geometry" />
        </mxCell>
        <mxCell id="4D2iNyLL06wOy7QIrrQS-12" value="Anular Reserva&amp;nbsp;" style="rounded=0;whiteSpace=wrap;html=1;" vertex="1" parent="1">
          <mxGeometry x="80" y="1240" width="120" height="80" as="geometry" />
        </mxCell>
        <mxCell id="4D2iNyLL06wOy7QIrrQS-13" value="Consultar Historial&lt;br&gt;de Estancias" style="rounded=0;whiteSpace=wrap;html=1;" vertex="1" parent="1">
          <mxGeometry x="80" y="1360" width="120" height="80" as="geometry" />
        </mxCell>
        <mxCell id="4D2iNyLL06wOy7QIrrQS-14" value="Consultar Habitaciones&lt;br&gt;Disponibles para&lt;br&gt;Reserva" style="rounded=0;whiteSpace=wrap;html=1;" vertex="1" parent="1">
          <mxGeometry x="80" y="1480" width="120" height="80" as="geometry" />
        </mxCell>
        <mxCell id="4D2iNyLL06wOy7QIrrQS-15" value="Recepción de Clientes sin&amp;nbsp;&lt;br&gt;Reserva" style="rounded=0;whiteSpace=wrap;html=1;" vertex="1" parent="1">
          <mxGeometry x="80" y="1600" width="120" height="80" as="geometry" />
        </mxCell>
        <mxCell id="4D2iNyLL06wOy7QIrrQS-16" value="&amp;nbsp;Generar Factura" style="rounded=0;whiteSpace=wrap;html=1;" vertex="1" parent="1">
          <mxGeometry x="80" y="1720" width="120" height="80" as="geometry" />
        </mxCell>
        <mxCell id="4D2iNyLL06wOy7QIrrQS-17" value="Aplicar Descuentos&amp;nbsp;" style="rounded=0;whiteSpace=wrap;html=1;" vertex="1" parent="1">
          <mxGeometry x="80" y="1840" width="120" height="80" as="geometry" />
        </mxCell>
        <mxCell id="4D2iNyLL06wOy7QIrrQS-18" value="Conectar con Módulo de ERP Odoo" style="rounded=0;whiteSpace=wrap;html=1;" vertex="1" parent="1">
          <mxGeometry x="80" y="1960" width="120" height="80" as="geometry" />
        </mxCell>
        <mxCell id="4D2iNyLL06wOy7QIrrQS-21" value="" style="rounded=0;whiteSpace=wrap;html=1;" vertex="1" parent="1">
          <mxGeometry x="40" y="40" width="120" height="60" as="geometry" />
        </mxCell>
        <mxCell id="4D2iNyLL06wOy7QIrrQS-22" value="Recepcionista/&lt;br&gt;Encargado" style="rounded=0;whiteSpace=wrap;html=1;" vertex="1" parent="1">
          <mxGeometry x="190" y="40" width="120" height="60" as="geometry" />
        </mxCell>
        <mxCell id="4D2iNyLL06wOy7QIrrQS-23" value="" style="rounded=0;whiteSpace=wrap;html=1;" vertex="1" parent="1">
          <mxGeometry x="340" y="40" width="120" height="60" as="geometry" />
        </mxCell>
        <mxCell id="4D2iNyLL06wOy7QIrrQS-24" value="" style="endArrow=none;dashed=1;html=1;dashPattern=1 3;strokeWidth=2;rounded=0;" edge="1" parent="1">
          <mxGeometry width="50" height="50" relative="1" as="geometry">
            <mxPoint x="80" y="2120" as="sourcePoint" />
            <mxPoint x="80" y="100" as="targetPoint" />
          </mxGeometry>
        </mxCell>
        <mxCell id="4D2iNyLL06wOy7QIrrQS-25" value="" style="endArrow=none;dashed=1;html=1;rounded=0;" edge="1" parent="1">
          <mxGeometry width="50" height="50" relative="1" as="geometry">
            <mxPoint x="200" y="2120" as="sourcePoint" />
            <mxPoint x="200" y="100" as="targetPoint" />
          </mxGeometry>
        </mxCell>
        <mxCell id="4D2iNyLL06wOy7QIrrQS-26" value="" style="endArrow=none;dashed=1;html=1;rounded=0;" edge="1" parent="1">
          <mxGeometry width="50" height="50" relative="1" as="geometry">
            <mxPoint x="360" y="2120" as="sourcePoint" />
            <mxPoint x="360" y="100" as="targetPoint" />
          </mxGeometry>
        </mxCell>
        <mxCell id="4D2iNyLL06wOy7QIrrQS-27" value="Sistema HotelSol&lt;br&gt;" style="text;html=1;strokeColor=none;fillColor=none;align=center;verticalAlign=middle;whiteSpace=wrap;rounded=0;" vertex="1" parent="1">
          <mxGeometry x="370" y="55" width="60" height="30" as="geometry" />
        </mxCell>
        <mxCell id="4D2iNyLL06wOy7QIrrQS-28" value="Usuario/Admin" style="text;html=1;strokeColor=none;fillColor=none;align=center;verticalAlign=middle;whiteSpace=wrap;rounded=0;" vertex="1" parent="1">
          <mxGeometry x="70" y="55" width="60" height="30" as="geometry" />
        </mxCell>
      </root>
    </mxGraphModel>
  </diagram>
</mxfile>
